<svg width="30" height="30" viewBox="0 0 30 30" fill="none" xmlns="http://www.w3.org/2000/svg">
<g clip-path="url(#clip0_146_577)">
<path d="M2.28596 15.4744L2.28607 15.4745C2.42387 15.6125 2.60735 15.6905 2.80473 15.694L2.28596 15.4744ZM2.28596 15.4744C1.99321 15.1817 1.99216 14.7051 2.28309 14.4109C2.28543 14.4086 2.28765 14.4064 2.28975 14.4042L14.5243 2.17012L14.5244 2.17001M2.28596 15.4744L14.5244 2.17001M14.5244 2.17001C14.667 2.02726 14.8553 1.94922 15.0573 1.94922C15.259 1.94922 15.4474 2.02723 15.5903 2.17011L15.7641 1.99623M14.5244 2.17001L15.7641 1.99623M15.7641 1.99623L15.5903 2.17011L27.8247 14.4043L27.8304 14.4098L15.7641 1.99623ZM27.2954 15.6958C27.497 15.6958 27.6856 15.6176 27.8286 15.4747C27.8286 15.4747 27.8286 15.4747 27.8286 15.4747M27.2954 15.6958L28.0054 15.6514L27.8286 15.4747M27.2954 15.6958H25.9642C25.3407 15.6958 24.8353 16.2011 24.8353 16.8247V26.7092C24.8353 27.3841 24.2858 27.9336 23.6106 27.9336H19.9518M27.2954 15.6958L19.9518 27.9336M27.8286 15.4747C28.1211 15.1819 28.1222 14.7052 27.8312 14.4106L27.8286 15.4747ZM19.9518 27.9336V22.002C19.9518 20.0816 18.3899 18.5195 16.4693 18.5195H13.6453C11.7247 18.5195 10.1626 20.0816 10.1626 22.002V27.9336H6.50372C5.82875 27.9336 5.27903 27.3841 5.27903 26.7092V16.8247C5.27903 16.2011 4.77365 15.6958 4.15012 15.6958H2.84977C2.83591 15.6949 2.82092 15.6942 2.80487 15.694C2.80491 15.694 2.80496 15.694 2.80501 15.694L19.9518 27.9336ZM29.4144 12.8007L29.4143 12.8006L17.1869 0.573767C17.1869 0.573753 17.1869 0.573739 17.1869 0.573725C16.6184 0.00498039 15.8613 -0.308594 15.0573 -0.308594C14.2533 -0.308594 13.4962 0.00500119 12.9275 0.573728L0.696213 12.8047L0.872988 12.9815L0.696211 12.8047C0.693079 12.8079 0.687347 12.8136 0.681412 12.8198C-0.484914 13.9949 -0.482333 15.8994 0.689116 17.0708C1.22293 17.6049 1.92793 17.9148 2.68114 17.949C2.71523 17.952 2.74936 17.9536 2.7837 17.9536H3.02122V26.7092C3.02122 28.6296 4.58337 30.1915 6.50372 30.1915H11.2915C11.9151 30.1915 12.4204 29.6858 12.4204 29.0626V22.002C12.4204 21.3269 12.9701 20.7773 13.6453 20.7773H16.4693C17.1444 20.7773 17.6939 21.3268 17.6939 22.002V29.0626C17.6939 29.6858 18.1993 30.1915 18.8229 30.1915H23.6106C25.5312 30.1915 27.0931 28.6296 27.0931 26.7092V17.9536H27.2954C28.0992 17.9536 28.8563 17.64 29.4252 17.071L29.4253 17.071C30.5985 15.8972 30.599 13.9879 29.427 12.8134L29.4248 12.8112C29.4247 12.8111 29.4246 12.811 29.4245 12.8109L29.4144 12.8007ZM2.32081 14.3645L2.32078 14.3646C2.32081 14.3645 2.32083 14.3645 2.32086 14.3645L2.32081 14.3645Z" fill="black" stroke="black" />
</g>

</svg>
