<svg width="20" height="12" viewBox="0 0 20 12" fill="none" xmlns="http://www.w3.org/2000/svg">
<path d="M10.7804 11.5556L19.6805 2.65536C19.8865 2.44951 20 2.17472 20 1.88171C20 1.58871 19.8865 1.31391 19.6805 1.10806L19.0252 0.452619C18.5982 0.0261187 17.9042 0.0261187 17.4779 0.452619L10.0041 7.92638L2.52209 0.444326C2.31608 0.238475 2.04145 0.124817 1.74861 0.124817C1.45544 0.124817 1.1808 0.238475 0.974627 0.444326L0.31951 1.09977C0.113497 1.30578 2.38419e-06 1.58041 2.38419e-06 1.87342C2.38419e-06 2.16643 0.113497 2.44122 0.31951 2.64707L9.22773 11.5556C9.4344 11.762 9.71033 11.8753 10.0037 11.8746C10.2981 11.8753 10.5739 11.762 10.7804 11.5556Z" fill="#A04955"/>
</svg>
