<svg width="30" height="30" viewBox="0 0 30 30" fill="red" xmlns="http://www.w3.org/2000/svg">
<path fill-rule="red" clip-rule="red" d="M29.6013 12.6341C29.6022 12.6351 29.6031 12.6359 29.604 12.6368C30.8734 13.909 30.8729 15.9764 29.6021 17.2477C28.9975 17.8523 28.1955 18.191 27.3431 18.2032V26.7092C27.3431 28.7677 25.6693 30.4415 23.6106 30.4415H18.8229C18.0612 30.4415 17.4439 29.8238 17.4439 29.0626V22.002C17.4439 21.4649 17.0063 21.0273 16.4693 21.0273H13.6453C13.1081 21.0273 12.6704 21.465 12.6704 22.002V29.0626C12.6704 29.8238 12.0532 30.4415 11.2915 30.4415H6.50372C4.44532 30.4415 2.77122 28.7677 2.77122 26.7092V18.2035C2.73549 18.2032 2.69991 18.2015 2.66439 18.1984C1.85104 18.1602 1.08905 17.8246 0.512257 17.2475C-0.756076 15.9791 -0.759261 13.918 0.502554 12.6451C0.50955 12.6378 0.515819 12.6316 0.518718 12.6287L0.519434 12.628L12.7507 0.396952C13.3663 -0.218651 14.187 -0.558594 15.0573 -0.558594C15.9275 -0.558594 16.7482 -0.218692 17.3637 0.396945C17.3637 0.396973 17.3636 0.396917 17.3637 0.396945L29.6013 12.6341ZM29.25 12.99L29.55 12.59C29.5722 12.6066 29.5897 12.6227 29.6013 12.6341C29.6022 12.6351 29.6031 12.6359 29.604 12.6368L29.25 12.99ZM29.2484 16.8943C30.3242 15.8181 30.3246 14.0669 29.25 12.99C29.2494 12.9895 29.2489 12.9889 29.2484 12.9884C29.2486 12.9886 29.2482 12.9882 29.2484 12.9884L17.0101 0.750505C16.4885 0.228654 15.795 -0.0585938 15.0573 -0.0585938C14.3196 -0.0585938 13.6261 0.228654 13.1042 0.750505L0.872988 12.9815C0.868868 12.9856 0.864519 12.99 0.860628 12.9941C-0.210541 14.0715 -0.20871 15.8194 0.865892 16.894C1.35684 17.3852 2.00504 17.6695 2.69832 17.6995C2.72671 17.7022 2.75509 17.7036 2.7837 17.7036H3.27122V26.7092C3.27122 28.4915 4.72141 29.9415 6.50372 29.9415H11.2915C11.7769 29.9415 12.1704 29.5478 12.1704 29.0626V22.002C12.1704 21.1888 12.8321 20.5273 13.6453 20.5273H16.4693C17.2825 20.5273 17.9439 21.1888 17.9439 22.002V29.0626C17.9439 29.5478 18.3374 29.9415 18.8229 29.9415H23.6106C25.3931 29.9415 26.8431 28.4915 26.8431 26.7092V17.7036H27.2954C28.0328 17.7036 28.7264 17.4163 29.2484 16.8943ZM2.10918 15.6512C2.2932 15.8355 2.53879 15.9394 2.80063 15.9439C2.8146 15.9442 2.8281 15.9449 2.84183 15.9458H4.15012C4.63558 15.9458 5.02903 16.3392 5.02903 16.8247V26.7092C5.02903 27.5222 5.69073 28.1836 6.50372 28.1836H10.4126V22.002C10.4126 20.2197 11.8628 18.7695 13.6453 18.7695H16.4693C18.2518 18.7695 19.7018 20.2197 19.7018 22.002V28.1836H23.6106C24.4238 28.1836 25.0853 27.5222 25.0853 26.7092V16.8247C25.0853 16.3392 25.4787 15.9458 25.9642 15.9458H27.2954C27.5634 15.9458 27.8156 15.8412 28.0054 15.6514C28.3959 15.2607 28.3965 14.6251 28.0072 14.233L28.0015 14.2276L15.767 1.99334C15.5773 1.80359 15.3253 1.69922 15.0573 1.69922C14.789 1.69922 14.537 1.80359 14.3475 1.99334L2.11033 14.2301C2.11024 14.2302 2.1095 14.2309 2.10945 14.231C2.10938 14.2311 2.10959 14.231 2.10945 14.231C1.71806 14.6226 1.71779 15.2598 2.10918 15.6512ZM2.46008 14.5874C2.26652 14.7841 2.26759 15.1025 2.46273 15.2976C2.55438 15.3894 2.67609 15.4416 2.8091 15.444M2.46008 14.5874C2.4624 14.5852 2.46464 14.5829 2.46684 14.5807L14.7011 2.3469C14.7967 2.25116 14.9216 2.19922 15.0573 2.19922C15.1926 2.19922 15.3175 2.25086 15.4135 2.34689L27.6479 14.5811L27.6557 14.5887C27.8479 14.7859 27.8461 15.1033 27.6518 15.2979C27.5557 15.394 27.4306 15.4458 27.2954 15.4458H25.9642C25.2026 15.4458 24.5853 16.0631 24.5853 16.8247V26.7092C24.5853 27.246 24.1477 27.6836 23.6106 27.6836H20.2018V22.002C20.2018 19.9436 18.528 18.2695 16.4693 18.2695H13.6453C11.5867 18.2695 9.91257 19.9435 9.91257 22.002V27.6836H6.50372C5.96677 27.6836 5.52903 27.2459 5.52903 26.7092V16.8247C5.52903 16.0631 4.91173 15.4458 4.15012 15.4458H2.85701M2.53213 14.4981C2.53206 14.4982 2.5322 14.498 2.53213 14.4981Z" fill="red"/>
</svg>
