<svg width="26" height="30" viewBox="0 0 26 30" fill="none" xmlns="http://www.w3.org/2000/svg">
<path d="M25.4006 28.7469L23.5751 8.41703C23.5253 7.86184 23.0599 7.43658 22.5026 7.43658H18.738V5.7387C18.738 2.57438 16.1638 0 12.9996 0C9.83556 0 7.26161 2.57438 7.26161 5.7387V7.43658H3.49444C2.93709 7.43658 2.47178 7.86184 2.42196 8.41703L0.589266 28.8269C0.562275 29.1281 0.663062 29.4266 0.867077 29.6497C1.07109 29.8728 1.35953 29.9999 1.66175 29.9999H24.3354C24.3363 29.9999 24.3374 29.9999 24.3383 29.9999C24.9331 29.9999 25.4151 29.5177 25.4151 28.9231C25.4149 28.8632 25.4101 28.8042 25.4006 28.7469ZM9.41518 5.7387C9.41518 3.76186 11.0232 2.15357 12.9997 2.15357C14.9764 2.15357 16.5846 3.76186 16.5846 5.7387V7.43658H9.41518V5.7387ZM2.83961 27.8464L4.47891 9.59015H7.26161V11.5157C7.26161 12.1104 7.74358 12.5925 8.3384 12.5925C8.93322 12.5925 9.41518 12.1104 9.41518 11.5157V9.59015H16.5846V11.5157C16.5846 12.1104 17.0665 12.5925 17.6614 12.5925C18.2562 12.5925 18.7381 12.1104 18.7381 11.5157V9.59015H21.5183L23.1576 27.8464H2.83961Z" fill="white"/>
</svg>
